Coordinates
version=1
nRows=7
nColumns=42
inDegrees=yes

Units are S.I. units (second, meters, Newtons, ...)
If the header above contains a line with 'inDegrees', this indicates whether rotational values are in degrees (yes) or radians (no).

endheader
time	pelvis_tilt	pelvis_list	pelvis_rotation	pelvis_tx	pelvis_ty	pelvis_tz	hip_flexion_r	hip_adduction_r	hip_rotation_r	knee_angle_r	knee_adduction_r	knee_angle_r_beta	ankle_angle_r	subtalar_angle_r	mtp_angle_r	hip_flexion_l	hip_adduction_l	hip_rotation_l	knee_angle_l	knee_adduction_l	knee_angle_l_beta	ankle_angle_l	subtalar_angle_l	mtp_angle_l	lumbar_extension	lumbar_bending	lumbar_rotation	arm_flex_r	arm_add_r	arm_rot_r	elbow_flex_r	pro_sup_r	wrist_flex_r	wrist_dev_r	arm_flex_l	arm_add_l	arm_rot_l	elbow_flex_l	pro_sup_l	wrist_flex_l	wrist_dev_l
      0.00000000	     -4.25420128	     -3.01495136	      0.53074477	     -1.38505978	      0.86652470	     -0.37941824	      1.51531177	      3.45922719	      0.48665217	      3.72750099	      8.33108943	      0.06505717	      7.35537306	      0.54772193	     -9.68755194	     24.63609408	     -6.69726210	      4.46500257	     61.71840753	      9.12050410	      1.07718942	      6.60053575	    -15.16740779	     -9.68755194	     -4.09610175	      0.77994542	      4.71968063	     -3.89866883	    -19.53809538	      8.29346476	     38.84245510	     90.00000001	      0.00000000	      0.00000000	     -0.23463509	    -10.84680770	     -8.04081081	     40.62037540	     90.00000001	      0.00000000	      0.00000000
      0.01000000	     -4.22975412	     -2.88881310	      0.66495263	     -1.37496586	      0.86579547	     -0.37879500	      0.63494097	      3.46428641	      0.55285505	      3.50986930	      8.22243388	      0.06125878	      7.95740917	      0.52338744	     -9.61062507	     26.02076154	     -6.47904832	      4.72358323	     59.80303716	      9.46879559	      1.04375990	      7.14819921	    -15.41219084	     -9.61062507	     -4.20136704	      0.53246243	      4.73959194	     -2.97509643	    -19.41788286	      8.21625494	     39.40285402	     90.00000001	      0.00000000	      0.00000000	     -0.53400617	    -10.96528771	     -8.25833799	     40.26754550	     90.00000001	      0.00000000	      0.00000000
      0.02000000	     -4.30410935	     -3.00944295	      0.69407788	     -1.36477378	      0.86483073	     -0.37797905	      0.00230766	      3.77838901	      0.36629950	      3.63567870	      8.06155766	      0.06345456	      8.39899450	      0.57451056	     -9.58192811	     27.46412444	     -6.61924961	      4.34938289	     57.83729078	      9.32124723	      1.00945115	      7.48062360	    -15.17391789	     -9.58192811	     -4.16756694	      0.55371172	      4.85154134	     -2.11385263	    -19.34961193	      8.16641638	     40.01805074	     90.00000001	      0.00000000	      0.00000000	     -0.93477692	    -11.07892707	     -8.33473264	     40.02603593	     90.00000001	      0.00000000	      0.00000000
      0.03000000	     -4.36165515	     -3.05261025	      0.69889174	     -1.35459235	      0.86383256	     -0.37729013	     -0.70498410	      3.99314498	      0.36875592	      3.61126958	      7.90236733	      0.06302854	      8.96815187	      0.68126184	     -9.55192414	     28.73005280	     -6.68443258	      3.94951135	     55.60393290	      9.24017803	      0.97047171	      7.96767693	    -15.06207146	     -9.55192414	     -4.18029585	      0.50255817	      4.97200768	     -1.29446552	    -19.26192160	      8.14661955	     40.61014388	     90.00000001	      0.00000000	      0.00000000	     -1.28242238	    -11.14608520	     -8.52061187	     39.69439415	     90.00000001	      0.00000000	      0.00000000
      0.04000000	     -3.98389609	     -2.63436139	      0.51879671	     -1.34406409	      0.86342596	     -0.37686285	     -2.10320549	      3.53323441	      1.05321435	      3.16557057	      8.03409470	      0.05524963	      9.66706257	      0.74831223	     -9.48757581	     29.05101362	     -6.35513294	      3.44217471	     52.68644034	      9.45989010	      0.91955186	      8.61989782	    -15.31006541	     -9.48757581	     -4.67126282	     -0.02003359	      5.24153136	     -0.33689150	    -19.20017182	      8.20237692	     41.12614093	     90.00000001	      0.00000000	      0.00000000	     -1.37634241	    -11.14794100	     -9.17481363	     39.06978362	     90.00000001	      0.00000000	      0.00000000
      0.05000000	     -3.73119779	     -2.46306896	      0.38764342	     -1.33353655	      0.86276942	     -0.37639680	     -3.23645192	      3.40148439	      1.32042287	      3.00848985	      8.04698138	      0.05250805	     10.03809113	      0.58915397	     -9.41818166	     29.51405281	     -6.29108981	      2.43223527	     49.75895829	      9.18931507	      0.86845765	      8.87497053	    -15.05012517	     -9.41818166	     -5.02173626	     -0.27522132	      5.49375196	      0.51762489	    -19.14926438	      8.27181315	     41.67142231	     90.00000001	      0.00000000	      0.00000000	     -1.58554425	    -11.14642778	     -9.50915748	     38.69911240	     90.00000001	      0.00000000	      0.00000000
      0.06000000	     -3.91258849	     -2.81650682	      0.41654023	     -1.32323080	      0.86129341	     -0.37581677	     -3.71890867	      3.90760667	      1.00015665	      3.22224291	      7.98717082	      0.05623875	     10.34984818	      0.60620029	     -9.39317837	     30.65292818	     -6.76563043	      1.50242006	     47.13909128	      8.80425389	      0.82273235	      8.93895549	    -14.48860184	     -9.39317837	     -4.88464479	      0.06180303	      5.48555483	      1.32526428	    -19.11813564	      8.23591942	     42.31660833	     90.00000001	      0.00000000	      0.00000000	     -2.05664407	    -11.25981187	     -9.56400873	     38.47914912	     90.00000001	      0.00000000	      0.00000000
